<svg width="152" height="152" viewBox="0 0 152 152" fill="none" xmlns="http://www.w3.org/2000/svg">
<rect width="152" height="152" rx="5" fill="#F7F8F9"/>
<mask id="path-2-inside-1_2_51" fill="white">
<path fill-rule="evenodd" clip-rule="evenodd" d="M20.3301 44.5C17.9387 45.8807 17.1193 48.9387 18.5 51.3301L63.5 129.272C64.8807 131.664 67.9387 132.483 70.3301 131.103L89.3827 120.103C91.7741 118.722 92.5935 115.664 91.2128 113.272L46.2128 35.3301C44.8321 32.9387 41.7741 32.1193 39.3827 33.5L20.3301 44.5ZM76.8564 120.406C78.7696 119.302 79.4251 116.855 78.3205 114.942C77.2159 113.029 74.7696 112.374 72.8564 113.478C70.9432 114.583 70.2877 117.029 71.3923 118.942C72.4969 120.855 74.9432 121.511 76.8564 120.406Z"/>
</mask>
<path fill-rule="evenodd" clip-rule="evenodd" d="M20.3301 44.5C17.9387 45.8807 17.1193 48.9387 18.5 51.3301L63.5 129.272C64.8807 131.664 67.9387 132.483 70.3301 131.103L89.3827 120.103C91.7741 118.722 92.5935 115.664 91.2128 113.272L46.2128 35.3301C44.8321 32.9387 41.7741 32.1193 39.3827 33.5L20.3301 44.5ZM76.8564 120.406C78.7696 119.302 79.4251 116.855 78.3205 114.942C77.2159 113.029 74.7696 112.374 72.8564 113.478C70.9432 114.583 70.2877 117.029 71.3923 118.942C72.4969 120.855 74.9432 121.511 76.8564 120.406Z" fill="white"/>
<path d="M19.366 50.8301C18.2615 48.917 18.917 46.4706 20.8301 45.366L19.8301 43.634C16.9604 45.2908 15.9771 48.9604 17.634 51.8301L19.366 50.8301ZM64.366 128.772L19.366 50.8301L17.634 51.8301L62.634 129.772L64.366 128.772ZM69.8301 130.237C67.917 131.341 65.4706 130.686 64.366 128.772L62.634 129.772C64.2908 132.642 67.9604 133.625 70.8301 131.969L69.8301 130.237ZM88.8827 119.237L69.8301 130.237L70.8301 131.969L89.8827 120.969L88.8827 119.237ZM90.3468 113.772C91.4514 115.686 90.7959 118.132 88.8827 119.237L89.8827 120.969C92.7524 119.312 93.7357 115.642 92.0788 112.772L90.3468 113.772ZM45.3468 35.8301L90.3468 113.772L92.0788 112.772L47.0788 34.8301L45.3468 35.8301ZM39.8827 34.366C41.7959 33.2615 44.2422 33.917 45.3468 35.8301L47.0788 34.8301C45.422 31.9604 41.7524 30.9771 38.8827 32.634L39.8827 34.366ZM20.8301 45.366L39.8827 34.366L38.8827 32.634L19.8301 43.634L20.8301 45.366ZM77.4545 115.442C78.2829 116.877 77.7913 118.712 76.3564 119.54L77.3564 121.272C79.7479 119.892 80.5672 116.834 79.1865 114.442L77.4545 115.442ZM73.3564 114.344C74.7913 113.516 76.6261 114.007 77.4545 115.442L79.1865 114.442C77.8058 112.051 74.7479 111.231 72.3564 112.612L73.3564 114.344ZM72.2583 118.442C71.4299 117.007 71.9215 115.173 73.3564 114.344L72.3564 112.612C69.9649 113.993 69.1456 117.051 70.5263 119.442L72.2583 118.442ZM76.3564 119.54C74.9215 120.369 73.0868 119.877 72.2583 118.442L70.5263 119.442C71.907 121.834 74.9649 122.653 77.3564 121.272L76.3564 119.54Z" fill="#DFE3E8" mask="url(#path-2-inside-1_2_51)"/>
<rect x="25.1962" y="50.9282" width="20" height="20" rx="2" transform="rotate(-30 25.1962 50.9282)" fill="#395ECE"/>
<rect x="37.6962" y="72.5788" width="20" height="20" rx="2" transform="rotate(-30 37.6962 72.5788)" fill="#FBCE41"/>
<rect x="50.1962" y="94.2295" width="20" height="20" rx="2" transform="rotate(-30 50.1962 94.2295)" fill="#FF6159"/>
<mask id="path-7-inside-2_2_51" fill="white">
<path fill-rule="evenodd" clip-rule="evenodd" d="M63 27C60.2386 27 58 29.2386 58 32L58 122C58 124.761 60.2386 127 63 127H85C87.7614 127 90 124.761 90 122V32C90 29.2386 87.7614 27 85 27H63ZM74 121C76.2091 121 78 119.209 78 117C78 114.791 76.2091 113 74 113C71.7909 113 70 114.791 70 117C70 119.209 71.7909 121 74 121Z"/>
</mask>
<path fill-rule="evenodd" clip-rule="evenodd" d="M63 27C60.2386 27 58 29.2386 58 32L58 122C58 124.761 60.2386 127 63 127H85C87.7614 127 90 124.761 90 122V32C90 29.2386 87.7614 27 85 27H63ZM74 121C76.2091 121 78 119.209 78 117C78 114.791 76.2091 113 74 113C71.7909 113 70 114.791 70 117C70 119.209 71.7909 121 74 121Z" fill="white"/>
<path d="M59 32C59 29.7909 60.7909 28 63 28V26C59.6863 26 57 28.6863 57 32H59ZM59 122L59 32H57L57 122H59ZM63 126C60.7909 126 59 124.209 59 122H57C57 125.314 59.6863 128 63 128V126ZM85 126H63V128H85V126ZM89 122C89 124.209 87.2091 126 85 126V128C88.3137 128 91 125.314 91 122H89ZM89 32V122H91V32H89ZM85 28C87.2091 28 89 29.7909 89 32H91C91 28.6863 88.3137 26 85 26V28ZM63 28H85V26H63V28ZM77 117C77 118.657 75.6569 120 74 120V122C76.7614 122 79 119.761 79 117H77ZM74 114C75.6569 114 77 115.343 77 117H79C79 114.239 76.7614 112 74 112V114ZM71 117C71 115.343 72.3431 114 74 114V112C71.2386 112 69 114.239 69 117H71ZM74 120C72.3431 120 71 118.657 71 117H69C69 119.761 71.2386 122 74 122V120Z" fill="#DFE3E8" mask="url(#path-7-inside-2_2_51)"/>
<rect x="64" y="35" width="20" height="20" rx="2" fill="#1B243F"/>
<rect x="64" y="60" width="20" height="20" rx="2" fill="#767C8C"/>
<rect x="64" y="85" width="20" height="20" rx="2" fill="#A4A7B2"/>
<mask id="path-12-inside-3_2_51" fill="white">
<path fill-rule="evenodd" clip-rule="evenodd" d="M109.33 33.5C106.939 32.1193 103.881 32.9387 102.5 35.3301L57.5 113.272C56.1193 115.664 56.9387 118.722 59.3301 120.103L78.3827 131.103C80.7741 132.483 83.8321 131.664 85.2128 129.272L130.213 51.3301C131.594 48.9387 130.774 45.8807 128.383 44.5L109.33 33.5ZM71.8564 120.406C73.7696 121.511 76.2159 120.855 77.3205 118.942C78.4251 117.029 77.7696 114.583 75.8564 113.478C73.9432 112.374 71.4969 113.029 70.3923 114.942C69.2877 116.855 69.9432 119.302 71.8564 120.406Z"/>
</mask>
<path fill-rule="evenodd" clip-rule="evenodd" d="M109.33 33.5C106.939 32.1193 103.881 32.9387 102.5 35.3301L57.5 113.272C56.1193 115.664 56.9387 118.722 59.3301 120.103L78.3827 131.103C80.7741 132.483 83.8321 131.664 85.2128 129.272L130.213 51.3301C131.594 48.9387 130.774 45.8807 128.383 44.5L109.33 33.5ZM71.8564 120.406C73.7696 121.511 76.2159 120.855 77.3205 118.942C78.4251 117.029 77.7696 114.583 75.8564 113.478C73.9432 112.374 71.4969 113.029 70.3923 114.942C69.2877 116.855 69.9432 119.302 71.8564 120.406Z" fill="white"/>
<path d="M102.5 35.3301L101.634 34.8301L102.5 35.3301ZM128.383 44.5L127.883 45.366L128.383 44.5ZM103.366 35.8301C104.471 33.917 106.917 33.2615 108.83 34.366L109.83 32.634C106.96 30.9771 103.291 31.9604 101.634 34.8301L103.366 35.8301ZM58.366 113.772L103.366 35.8301L101.634 34.8301L56.634 112.772L58.366 113.772ZM59.8301 119.237C57.917 118.132 57.2615 115.686 58.366 113.772L56.634 112.772C54.9771 115.642 55.9604 119.312 58.8301 120.969L59.8301 119.237ZM78.8827 130.237L59.8301 119.237L58.8301 120.969L77.8827 131.969L78.8827 130.237ZM84.3468 128.772C83.2422 130.686 80.7959 131.341 78.8827 130.237L77.8827 131.969C80.7524 133.625 84.422 132.642 86.0788 129.772L84.3468 128.772ZM129.347 50.8301L84.3468 128.772L86.0788 129.772L131.079 51.8301L129.347 50.8301ZM127.883 45.366C129.796 46.4706 130.451 48.917 129.347 50.8301L131.079 51.8301C132.736 48.9604 131.752 45.2908 128.883 43.634L127.883 45.366ZM108.83 34.366L127.883 45.366L128.883 43.634L109.83 32.634L108.83 34.366ZM76.4545 118.442C75.6261 119.877 73.7913 120.369 72.3564 119.54L71.3564 121.272C73.7479 122.653 76.8058 121.834 78.1865 119.442L76.4545 118.442ZM75.3564 114.344C76.7913 115.173 77.2829 117.007 76.4545 118.442L78.1865 119.442C79.5672 117.051 78.7479 113.993 76.3564 112.612L75.3564 114.344ZM71.2583 115.442C72.0868 114.007 73.9215 113.516 75.3564 114.344L76.3564 112.612C73.9649 111.231 70.907 112.051 69.5263 114.442L71.2583 115.442ZM72.3564 119.54C70.9215 118.712 70.4299 116.877 71.2583 115.442L69.5263 114.442C68.1456 116.834 68.9649 119.892 71.3564 121.272L72.3564 119.54Z" fill="#DFE3E8" mask="url(#path-12-inside-3_2_51)"/>
<rect x="106.196" y="40.9282" width="20" height="20" rx="2" transform="rotate(30 106.196 40.9282)" fill="#00B3B0"/>
<rect x="93.6962" y="62.5788" width="20" height="20" rx="2" transform="rotate(30 93.6962 62.5788)" fill="#66D1D0"/>
<rect x="81.1962" y="84.2295" width="20" height="20" rx="2" transform="rotate(30 81.1962 84.2295)" fill="#99E1DF"/>
</svg>
