<svg width="152" height="152" viewBox="0 0 152 152" fill="none" xmlns="http://www.w3.org/2000/svg">
<rect width="152" height="152" rx="5" fill="#F7F8F9"/>
<rect x="18.5" y="44.5" width="115" height="63" rx="9.5" fill="white" stroke="#DFE3E8"/>
<path fill-rule="evenodd" clip-rule="evenodd" d="M45.7154 64.1733C46.0354 64.3369 46.2954 64.607 46.4514 64.9404L49.2814 70.9304L55.6134 71.8919C56.0424 71.9624 56.4269 72.2034 56.6831 72.5623C56.9393 72.9213 57.0465 73.3693 56.9814 73.8088C56.9309 74.1752 56.7653 74.5148 56.5094 74.7764L51.9294 79.4407L53.0094 86.0239C53.0848 86.4615 52.9885 86.9118 52.7414 87.2771C52.4943 87.6425 52.1163 87.8935 51.6894 87.9756C51.3378 88.0386 50.9757 87.9788 50.6614 87.8058L44.9994 84.6962L39.3374 87.8058C39.1489 87.9087 38.9421 87.9721 38.7293 87.992C38.5164 88.012 38.3018 87.9882 38.0981 87.9221C37.8944 87.8559 37.7057 87.7488 37.5431 87.6069C37.3805 87.465 37.2474 87.2912 37.1514 87.0959C36.9853 86.766 36.9277 86.39 36.9874 86.0239L38.0674 79.4387L33.4874 74.7743C33.1801 74.4579 33.0053 74.0314 33.0001 73.5854C32.9949 73.1394 33.1596 72.7088 33.4594 72.3849C33.7059 72.1198 34.0317 71.9463 34.3854 71.8919L40.7154 70.9304L43.5474 64.9404C43.6386 64.7427 43.7675 64.5657 43.9266 64.4197C44.0856 64.2737 44.2716 64.1616 44.4736 64.0902C44.6755 64.0187 44.8894 63.9892 45.1027 64.0035C45.3159 64.0178 45.5243 64.0755 45.7154 64.1733Z" fill="#FBCE41"/>
<path fill-rule="evenodd" clip-rule="evenodd" d="M76.7154 64.1733C77.0354 64.3369 77.2954 64.607 77.4514 64.9404L80.2814 70.9304L86.6134 71.8919C87.0424 71.9624 87.4269 72.2034 87.6831 72.5623C87.9393 72.9213 88.0465 73.3693 87.9814 73.8088C87.9309 74.1752 87.7653 74.5148 87.5094 74.7764L82.9294 79.4407L84.0094 86.0239C84.0848 86.4615 83.9885 86.9118 83.7414 87.2771C83.4943 87.6425 83.1163 87.8935 82.6894 87.9756C82.3378 88.0386 81.9757 87.9788 81.6614 87.8058L75.9994 84.6962L70.3374 87.8058C70.1489 87.9087 69.9421 87.9721 69.7293 87.992C69.5164 88.012 69.3018 87.9882 69.0981 87.9221C68.8944 87.8559 68.7057 87.7488 68.5431 87.6069C68.3805 87.465 68.2474 87.2912 68.1514 87.0959C67.9853 86.766 67.9277 86.39 67.9874 86.0239L69.0674 79.4387L64.4874 74.7743C64.1801 74.4579 64.0053 74.0314 64.0001 73.5854C63.9949 73.1394 64.1596 72.7088 64.4594 72.3849C64.7059 72.1198 65.0317 71.9463 65.3854 71.8919L71.7154 70.9304L74.5474 64.9404C74.6386 64.7427 74.7675 64.5657 74.9266 64.4197C75.0856 64.2737 75.2716 64.1616 75.4736 64.0902C75.6755 64.0187 75.8894 63.9892 76.1027 64.0035C76.3159 64.0178 76.5243 64.0755 76.7154 64.1733Z" fill="#FBCE41"/>
<path fill-rule="evenodd" clip-rule="evenodd" d="M107.715 64.1733C108.035 64.3369 108.295 64.607 108.451 64.9404L111.281 70.9304L117.613 71.8919C118.042 71.9624 118.427 72.2034 118.683 72.5623C118.939 72.9213 119.046 73.3693 118.981 73.8088C118.931 74.1752 118.765 74.5148 118.509 74.7764L113.929 79.4407L115.009 86.0239C115.085 86.4615 114.988 86.9118 114.741 87.2771C114.494 87.6425 114.116 87.8935 113.689 87.9756C113.338 88.0386 112.976 87.9788 112.661 87.8058L106.999 84.6962L101.337 87.8058C101.149 87.9087 100.942 87.9721 100.729 87.992C100.516 88.012 100.302 87.9882 100.098 87.9221C99.8944 87.8559 99.7057 87.7488 99.5431 87.6069C99.3805 87.465 99.2474 87.2912 99.1514 87.0959C98.9853 86.766 98.9277 86.39 98.9874 86.0239L100.067 79.4387L95.4874 74.7743C95.1801 74.4579 95.0053 74.0314 95.0001 73.5854C94.9949 73.1394 95.1596 72.7088 95.4594 72.3849C95.7059 72.1198 96.0317 71.9463 96.3854 71.8919L102.715 70.9304L105.547 64.9404C105.639 64.7427 105.768 64.5657 105.927 64.4197C106.086 64.2737 106.272 64.1616 106.474 64.0902C106.676 64.0187 106.889 63.9892 107.103 64.0035C107.316 64.0178 107.524 64.0755 107.715 64.1733Z" fill="#DFE3E8"/>
</svg>
