<svg width="152" height="152" viewBox="0 0 152 152" fill="none" xmlns="http://www.w3.org/2000/svg">
<rect width="152" height="152" rx="5" fill="#1B243F"/>
<rect x="26" y="38" width="100" height="76" rx="5" fill="#495065"/>
<path fill-rule="evenodd" clip-rule="evenodd" d="M63.5858 65.6447C62.8047 66.4258 62.8047 67.6921 63.5858 68.4731L70.8336 75.721L63.5858 82.9688C62.8047 83.7499 62.8047 85.0162 63.5858 85.7973L63.6447 85.8562C64.4258 86.6372 65.6921 86.6372 66.4731 85.8562L75.1334 77.1959C75.134 77.1953 75.1346 77.1947 75.1352 77.1941L75.1941 77.1352C75.7799 76.5494 75.9264 75.6907 75.6335 74.9684C75.5358 74.7276 75.3894 74.502 75.1941 74.3068L75.1352 74.2478L66.4731 65.5858C65.6921 64.8047 64.4258 64.8047 63.6447 65.5858L63.5858 65.6447Z" fill="white"/>
<rect x="76" y="82.0201" width="13" height="4" rx="2" fill="white"/>
</svg>
